<?xml version="1.0" encoding="UTF-8" standalone="no"?>
<svg
   version="1.0"
   width="106.65906pt"
   height="100.18275pt"
   viewBox="0 0 106.65905 100.18276"
   preserveAspectRatio="xMidYMid"
   id="svg41"
   sodipodi:docname="notFound.svg"
   inkscape:export-filename="../../../../../home/nghtmare/snap/inkscape/10417/bitmap.svg"
   inkscape:export-xdpi="15.481904"
   inkscape:export-ydpi="15.481904"
   inkscape:version="1.2.1 (2ed6d7ae0b, 2022-08-22, custom)"
   xmlns:inkscape="http://www.inkscape.org/namespaces/inkscape"
   xmlns:sodipodi="http://sodipodi.sourceforge.net/DTD/sodipodi-0.dtd"
   xmlns:xlink="http://www.w3.org/1999/xlink"
   xmlns="http://www.w3.org/2000/svg"
   xmlns:svg="http://www.w3.org/2000/svg">
  <sodipodi:namedview
     id="namedview142"
     pagecolor="#ffffff"
     bordercolor="#666666"
     borderopacity="1.0"
     inkscape:showpageshadow="2"
     inkscape:pageopacity="0.0"
     inkscape:pagecheckerboard="0"
     inkscape:deskcolor="#d1d1d1"
     inkscape:document-units="pt"
     showgrid="false"
     inkscape:zoom="6.1612405"
     inkscape:cx="71.08958"
     inkscape:cy="66.788498"
     inkscape:window-width="1920"
     inkscape:window-height="1026"
     inkscape:window-x="0"
     inkscape:window-y="26"
     inkscape:window-maximized="1"
     inkscape:current-layer="svg41" />
  <defs
     id="defs45">
    <linearGradient
       inkscape:collect="always"
       id="linearGradient882">
      <stop
         style="stop-color:#fbc593;stop-opacity:1;"
         offset="0.2755613"
         id="stop878" />
      <stop
         style="stop-color:#f67e7e;stop-opacity:1;"
         offset="1"
         id="stop880" />
    </linearGradient>
    <linearGradient
       inkscape:collect="always"
       xlink:href="#linearGradient882"
       id="linearGradient3066"
       x1="0"
       y1="640"
       x2="1280"
       y2="640"
       gradientUnits="userSpaceOnUse" />
  </defs>
  <g
     transform="matrix(0.08332739,0,0,-0.07826778,0,100.18276)"
     fill="#000000"
     stroke="none"
     id="g39"
     style="fill:url(#linearGradient3066);fill-opacity:1">
    <path
       d="M 22,1257 0,1234 V 639 43 L 23,22 46,0 h 595 596 l 21,23 22,23 v 595 596 l -23,21 -23,22 H 639 43 Z m 1216,-99 3,-78 H 640 40 v 73 c 0,41 3,77 7,80 3,4 272,6 597,5 l 591,-3 z m 0,-615 -3,-498 H 640 45 l -3,498 -2,497 h 600 600 z"
       id="path25"
       style="fill:url(#linearGradient3066);fill-opacity:1" />
    <path
       d="m 964,1169 c -10,-17 13,-36 27,-22 12,12 4,33 -11,33 -5,0 -12,-5 -16,-11 z"
       id="path27"
       style="fill:url(#linearGradient3066);fill-opacity:1" />
    <path
       d="m 1044,1169 c -10,-17 13,-36 27,-22 12,12 4,33 -11,33 -5,0 -12,-5 -16,-11 z"
       id="path29"
       style="fill:url(#linearGradient3066);fill-opacity:1" />
    <path
       d="m 1124,1169 c -10,-17 13,-36 27,-22 12,12 4,33 -11,33 -5,0 -12,-5 -16,-11 z"
       id="path31"
       style="fill:url(#linearGradient3066);fill-opacity:1" />
    <path
       d="m 324,749 c -3,-6 11,-28 32,-50 l 38,-39 -39,-40 c -30,-31 -36,-43 -27,-52 9,-9 21,-3 52,27 l 40,39 40,-39 c 31,-30 43,-36 52,-27 9,9 3,21 -27,52 l -39,40 39,40 c 30,31 36,43 27,52 -9,9 -21,3 -52,-27 l -40,-39 -38,37 c -41,40 -47,43 -58,26 z"
       id="path33"
       style="fill:url(#linearGradient3066);fill-opacity:1" />
    <path
       d="m 764,749 c -3,-6 11,-28 32,-50 l 38,-39 -39,-40 c -30,-31 -36,-43 -27,-52 9,-9 21,-3 52,27 l 40,39 40,-39 c 31,-30 43,-36 52,-27 9,9 3,21 -27,52 l -39,40 39,40 c 30,31 36,43 27,52 -9,9 -21,3 -52,-27 l -40,-39 -38,37 c -41,40 -47,43 -58,26 z"
       id="path35"
       style="fill:url(#linearGradient3066);fill-opacity:1" />
    <path
       d="m 585,431 c -63,-16 -125,-61 -125,-93 0,-26 17,-22 56,12 68,59 187,61 249,4 29,-27 55,-32 55,-10 0,25 -71,75 -122,86 -54,11 -69,11 -113,1 z"
       id="path37"
       style="fill:url(#linearGradient3066);fill-opacity:1" />
  </g>
</svg>
